<svg id="Layer_1" data-name="Layer 1" xmlns="http://www.w3.org/2000/svg" viewBox="0 0 543.3 104.6">
  <defs>
    <style>
      .cls-1{fill:#fff}.cls-2{fill:#7f1416}.cls-3{fill:#961b1e}
    </style>
  </defs>
  <path class="cls-1" d="M262.1 303.3q6.7-8.2 16.5-8.2a16.3 16.3 0 016.3 1l-2.3 15.7-1.4 1.2a18.2 18.2 0 00-4.3-.6 15 15 0 00-8.6 2.6 17.9 17.9 0 00-6.2 8v34.2H242v-60.9h20.2zM297.2 356a18.3 18.3 0 01-10-16.7 17.1 17.1 0 015.7-13.2q5.6-5.1 16.3-6.2l15-1.6v-1.8a7.7 7.7 0 00-2-5.8c-1.4-1.3-3.4-2-6-2a8.1 8.1 0 00-6 2.1 8 8 0 00-2.3 5.6l-17-1.9-.6-1.2a22.7 22.7 0 019-13.5q6.6-4.7 16.8-4.7 12 0 19.6 6t7.6 17.4v18.3c0 3.6 1.3 5.5 3.9 5.5a6.3 6.3 0 001.8-.3l1 1v13.6a30.5 30.5 0 01-9.3 1.2 18.8 18.8 0 01-8.2-1.8 14.6 14.6 0 01-6.2-5.8H325a30.3 30.3 0 01-8.2 6.2 23.7 23.7 0 01-10.2 2 20.2 20.2 0 01-9.4-2.4zm27-20.8v-5l-10.9 1.5q-7.8 1-7.8 6.4a5.3 5.3 0 001.8 4.1 6.6 6.6 0 004.6 1.6q7.3 0 12.4-8.6zM394.6 338.8a15.6 15.6 0 004.7-6.8l16.2 2.1 1.3 1.7q-3.3 11-11 16.8t-19.3 5.7a33.6 33.6 0 01-16.3-4 31 31 0 01-11.9-11.3 32.5 32.5 0 010-32.6 31 31 0 0111.9-11.3 33.7 33.7 0 0116.4-4q12.1 0 20 6a27 27 0 0110.2 16.3l-1.3 1.9-16.2 2.2a12.2 12.2 0 00-4.3-6.6 13.2 13.2 0 00-8.4-2.6 13 13 0 00-9.5 3.7q-3.7 3.6-3.7 10.7t3.7 10.6a12.8 12.8 0 009.5 3.7c3.4 0 6-.7 8-2.2zM445.6 332.4h-1.3v24.7h-20.2v-88.8h20.2v46.9h1.2l15.3-18.9H484l-21.4 26.4 22 34.4h-23.4z" transform="translate(-124.3 -253.8)"/>
  <path class="cls-2" d="M507.1 338a11 11 0 11-8-3.3 10.8 10.8 0 018 3.3z" transform="translate(-124.3 -253.8)"/>
  <path class="cls-1" d="M535.2 296.3l-1.7 9.1a28.6 28.6 0 017.7-7.3 19.9 19.9 0 0111.1-3 10.1 10.1 0 015.2 1l-1.9 6.8a7.5 7.5 0 00-2.2-.5 25 25 0 00-2.6-.2 14.2 14.2 0 00-5.1 1 25 25 0 00-5.3 2.8 28.8 28.8 0 00-4.8 4.2 28.2 28.2 0 00-3.8 5.2l-7.3 41.8H517l10.7-60.9zM595.8 357.1l1.7-9.8a28.3 28.3 0 01-3.6 3.9 27.5 27.5 0 01-4.9 3.5 29.8 29.8 0 01-6 2.6 23.4 23.4 0 01-7 1q-8.7 0-13.4-4.8a16.8 16.8 0 01-4.6-12.2l.1-2.8.5-3.5 6.8-38.7h7.6l-7.1 39.8a33.6 33.6 0 00-.4 4.6 10.3 10.3 0 003 7.8q2.9 2.8 8.7 2.8a20.2 20.2 0 0012.2-4 44.7 44.7 0 0010-10.5l7.1-40.5h7.5l-10.7 60.8zM629.8 296.3l-1.7 9.9a24.7 24.7 0 013.7-4 30.4 30.4 0 015-3.4 29.9 29.9 0 016.3-2.7 26 26 0 017.5-1q8.1 0 12.6 4.8a17.3 17.3 0 014.4 12.3l-.1 2.8-.5 3.5-6.8 38.7h-7.5l7-39.2.3-2.6a15.4 15.4 0 00.1-2 11.3 11.3 0 00-2.9-8.1q-3-3.1-8.8-3.1a20.2 20.2 0 00-11.8 3.9 45.1 45.1 0 00-10.4 10.6l-7 40.5h-7.6l10.7-60.9z" transform="translate(-124.3 -253.8)"/>
  <path class="cls-2" d="M248.6 253.8l-77.8 104.3v-30.8z" transform="translate(-124.3 -253.8)"/>
  <path class="cls-3" d="M170.7 357.9c-6.5-8.4-12.8-16.9-19.6-25a217.1 217.1 0 00-26.8-26.9l46.5 21z" transform="translate(-124.3 -253.8)"/>
  <path class="cls-1" d="M86.2 30.1l5-4.7H69.1v17.1H59v13.4l27.2-25.8z"/>
  <path class="cls-1" d="M221.8 296.1l-20.1 27v15.1q0 10.3 5.5 15.2t14.8 4.9a53.2 53.2 0 0011.2-1.2V342l-1.2-.7a10.8 10.8 0 01-4.2.8 6.2 6.2 0 01-4.3-1.4 5.7 5.7 0 01-1.6-4.4v-26.7h11.9v-13.3h-12z" transform="translate(-124.3 -253.8)"/>
</svg>
